<svg width="170" height="50" viewBox="0 0 170 50" fill="none" xmlns="http://www.w3.org/2000/svg">
<rect x="0.5" y="0.5" width="169" height="49" stroke="#023047" stroke-dasharray="6 6"/>
<path d="M32.2078 21.684H36.5898V20.2H32.2078V21.684ZM32.2078 25.576H36.4498V24.134H32.2078V25.576ZM31.1858 20.2V30H32.8098V20.2H31.1858ZM40.5165 25.324L43.6245 30H45.6265L42.2945 25.324H40.5165ZM38.4865 20.2V30H40.1385V20.2H38.4865ZM39.4665 21.628H41.4405C41.8232 21.628 42.1545 21.6933 42.4345 21.824C42.7145 21.9547 42.9339 22.1413 43.0925 22.384C43.2512 22.6267 43.3305 22.9253 43.3305 23.28C43.3305 23.6253 43.2512 23.924 43.0925 24.176C42.9339 24.4187 42.7145 24.6053 42.4345 24.736C42.1545 24.8573 41.8232 24.918 41.4405 24.918H39.4665V26.29H41.5105C42.2292 26.29 42.8499 26.164 43.3725 25.912C43.8952 25.66 44.3012 25.3053 44.5905 24.848C44.8892 24.3907 45.0385 23.854 45.0385 23.238C45.0385 22.622 44.8892 22.09 44.5905 21.642C44.3012 21.1847 43.8952 20.83 43.3725 20.578C42.8499 20.326 42.2292 20.2 41.5105 20.2H39.4665V21.628ZM47.8347 30H52.7767V28.544H47.8347V30ZM47.8347 21.656H52.7767V20.2H47.8347V21.656ZM47.8347 25.464H52.4967V24.036H47.8347V25.464ZM46.8127 20.2V30H48.4367V20.2H46.8127ZM55.8328 30H60.7748V28.544H55.8328V30ZM55.8328 21.656H60.7748V20.2H55.8328V21.656ZM55.8328 25.464H60.4948V24.036H55.8328V25.464ZM54.8108 20.2V30H56.4348V20.2H54.8108ZM62.7668 22.496L65.0488 21.866V30H66.6728V20.046L62.7668 20.928V22.496ZM70.5317 25.1C70.5317 24.5773 70.583 24.0967 70.6857 23.658C70.7883 23.2193 70.933 22.8413 71.1197 22.524C71.3157 22.2067 71.549 21.964 71.8197 21.796C72.0903 21.6187 72.3937 21.53 72.7297 21.53C73.0657 21.53 73.3643 21.6187 73.6257 21.796C73.8963 21.964 74.125 22.2067 74.3117 22.524C74.5077 22.8413 74.657 23.2193 74.7597 23.658C74.8623 24.0967 74.9137 24.5773 74.9137 25.1C74.9137 25.6227 74.8623 26.1033 74.7597 26.542C74.657 26.9807 74.5077 27.3587 74.3117 27.676C74.125 27.9933 73.8963 28.2407 73.6257 28.418C73.3643 28.586 73.0657 28.67 72.7297 28.67C72.3937 28.67 72.0903 28.586 71.8197 28.418C71.549 28.2407 71.3157 27.9933 71.1197 27.676C70.933 27.3587 70.7883 26.9807 70.6857 26.542C70.583 26.1033 70.5317 25.6227 70.5317 25.1ZM68.9077 25.1C68.9077 26.1173 69.0663 27.004 69.3837 27.76C69.7103 28.516 70.1583 29.104 70.7277 29.524C71.3063 29.944 71.9737 30.154 72.7297 30.154C73.495 30.154 74.1623 29.944 74.7317 29.524C75.301 29.104 75.7443 28.516 76.0617 27.76C76.379 27.004 76.5377 26.1173 76.5377 25.1C76.5377 24.0827 76.379 23.196 76.0617 22.44C75.7443 21.684 75.301 21.096 74.7317 20.676C74.1623 20.256 73.495 20.046 72.7297 20.046C71.9737 20.046 71.3063 20.256 70.7277 20.676C70.1583 21.096 69.7103 21.684 69.3837 22.44C69.0663 23.196 68.9077 24.0827 68.9077 25.1ZM78.1897 20.2V30H79.8837V20.2H78.1897ZM81.3537 30C82.3523 30 83.2297 29.7993 83.9857 29.398C84.7417 28.9873 85.3297 28.418 85.7497 27.69C86.179 26.9527 86.3937 26.0893 86.3937 25.1C86.3937 24.1107 86.179 23.252 85.7497 22.524C85.3297 21.7867 84.7417 21.2173 83.9857 20.816C83.2297 20.4053 82.3523 20.2 81.3537 20.2H79.2117V21.754H81.3117C81.797 21.754 82.245 21.824 82.6557 21.964C83.0663 22.104 83.421 22.314 83.7197 22.594C84.0277 22.874 84.2657 23.224 84.4337 23.644C84.611 24.064 84.6997 24.5493 84.6997 25.1C84.6997 25.6507 84.611 26.136 84.4337 26.556C84.2657 26.976 84.0277 27.326 83.7197 27.606C83.421 27.8767 83.0663 28.0867 82.6557 28.236C82.245 28.376 81.797 28.446 81.3117 28.446H79.2117V30H81.3537ZM89.0281 30H93.9701V28.544H89.0281V30ZM89.0281 21.656H93.9701V20.2H89.0281V21.656ZM89.0281 25.464H93.6901V24.036H89.0281V25.464ZM88.0061 20.2V30H89.6301V20.2H88.0061ZM96.0041 20.2V30H101.548V28.516H97.6561V20.2H96.0041ZM102.744 20.2V30H104.424V20.2H102.744ZM110.338 27.088L107.454 20.2H105.55L110.338 30.546L115.14 20.2H113.222L110.338 27.088ZM117.288 30H122.23V28.544H117.288V30ZM117.288 21.656H122.23V20.2H117.288V21.656ZM117.288 25.464H121.95V24.036H117.288V25.464ZM116.266 20.2V30H117.89V20.2H116.266ZM126.294 25.324L129.402 30H131.404L128.072 25.324H126.294ZM124.264 20.2V30H125.916V20.2H124.264ZM125.244 21.628H127.218C127.601 21.628 127.932 21.6933 128.212 21.824C128.492 21.9547 128.711 22.1413 128.87 22.384C129.029 22.6267 129.108 22.9253 129.108 23.28C129.108 23.6253 129.029 23.924 128.87 24.176C128.711 24.4187 128.492 24.6053 128.212 24.736C127.932 24.8573 127.601 24.918 127.218 24.918H125.244V26.29H127.288C128.007 26.29 128.627 26.164 129.15 25.912C129.673 25.66 130.079 25.3053 130.368 24.848C130.667 24.3907 130.816 23.854 130.816 23.238C130.816 22.622 130.667 22.09 130.368 21.642C130.079 21.1847 129.673 20.83 129.15 20.578C128.627 20.326 128.007 20.2 127.288 20.2H125.244V21.628ZM137.98 20.2L135.698 24.386L133.43 20.2H131.54L134.872 25.884V30H136.552V25.87L139.87 20.2H137.98Z" fill="#023047"/>
</svg>
