<svg width="570" height="50" viewBox="0 0 570 50" fill="none" xmlns="http://www.w3.org/2000/svg">
<rect width="570" height="50" fill="white"/>
<path d="M17.778 30H22.72V28.88H17.778V30ZM17.778 21.32H22.72V20.2H17.778V21.32ZM17.778 25.24H22.44V24.12H17.778V25.24ZM17.12 20.2V30H18.31V20.2H17.12ZM28.8773 26.08V30H29.9973V25.94C29.9973 25.1653 29.7966 24.554 29.3953 24.106C29.0033 23.6487 28.4666 23.42 27.7853 23.42C27.3653 23.42 26.9919 23.5133 26.6653 23.7C26.3479 23.8867 26.0819 24.176 25.8673 24.568V23.56H24.7473V30H25.8673V26.08C25.8673 25.7627 25.9326 25.4827 26.0633 25.24C26.2033 24.9973 26.3946 24.8107 26.6373 24.68C26.8893 24.54 27.1786 24.47 27.5053 24.47C27.9533 24.47 28.2939 24.6053 28.5273 24.876C28.7606 25.1467 28.8773 25.548 28.8773 26.08ZM31.1227 23.56V24.61H34.3427V23.56H31.1227ZM32.1727 21.32V30H33.2927V21.32H32.1727ZM37.958 30.14C38.6487 30.14 39.246 30.0047 39.75 29.734C40.2633 29.454 40.688 29.0433 41.024 28.502L40.114 27.928C39.8807 28.32 39.596 28.614 39.26 28.81C38.924 28.9967 38.5367 29.09 38.098 29.09C37.6593 29.09 37.286 28.9967 36.978 28.81C36.67 28.6233 36.4367 28.3527 36.278 27.998C36.1193 27.6433 36.04 27.214 36.04 26.71C36.0493 26.2153 36.1333 25.8 36.292 25.464C36.46 25.1187 36.6933 24.8573 36.992 24.68C37.3 24.4933 37.6687 24.4 38.098 24.4C38.462 24.4 38.7793 24.4793 39.05 24.638C39.3207 24.7967 39.5307 25.016 39.68 25.296C39.8387 25.576 39.918 25.9073 39.918 26.29C39.918 26.3553 39.904 26.4393 39.876 26.542C39.848 26.6353 39.82 26.7053 39.792 26.752L40.24 26.108H35.62V27.06H41.122C41.122 27.0413 41.122 26.9993 41.122 26.934C41.1313 26.8593 41.136 26.7893 41.136 26.724C41.136 26.0427 41.0147 25.4547 40.772 24.96C40.5293 24.4653 40.1793 24.0873 39.722 23.826C39.274 23.5553 38.7327 23.42 38.098 23.42C37.4633 23.42 36.9033 23.56 36.418 23.84C35.942 24.12 35.5687 24.512 35.298 25.016C35.0367 25.52 34.906 26.108 34.906 26.78C34.906 27.4427 35.032 28.026 35.284 28.53C35.5453 29.034 35.9047 29.4307 36.362 29.72C36.8287 30 37.3607 30.14 37.958 30.14ZM43.7911 23.56H42.6711V30H43.7911V23.56ZM45.7371 24.792L46.3531 23.868C46.1851 23.6907 45.9984 23.574 45.7931 23.518C45.5971 23.4527 45.3824 23.42 45.1491 23.42C44.8504 23.42 44.5564 23.5367 44.2671 23.77C43.9778 24.0033 43.7398 24.3207 43.5531 24.722C43.3758 25.114 43.2871 25.5667 43.2871 26.08H43.7911C43.7911 25.772 43.8191 25.4967 43.8751 25.254C43.9404 25.0113 44.0524 24.82 44.2111 24.68C44.3698 24.54 44.5891 24.47 44.8691 24.47C45.0558 24.47 45.2098 24.498 45.3311 24.554C45.4524 24.6007 45.5878 24.68 45.7371 24.792ZM56.7772 23.56H55.5172L53.5292 28.544L53.9912 28.6L51.9472 23.56H50.6172L53.0812 29.09L51.3172 33.08H52.5772L56.7772 23.56ZM57.0681 26.78C57.0681 27.424 57.2128 28.0027 57.5021 28.516C57.8008 29.02 58.2021 29.4167 58.7061 29.706C59.2101 29.9953 59.7748 30.14 60.4001 30.14C61.0348 30.14 61.5995 29.9953 62.0941 29.706C62.5981 29.4167 62.9948 29.02 63.2841 28.516C63.5828 28.0027 63.7321 27.424 63.7321 26.78C63.7321 26.1267 63.5828 25.548 63.2841 25.044C62.9948 24.54 62.5981 24.1433 62.0941 23.854C61.5995 23.5647 61.0348 23.42 60.4001 23.42C59.7748 23.42 59.2101 23.5647 58.7061 23.854C58.2021 24.1433 57.8008 24.54 57.5021 25.044C57.2128 25.548 57.0681 26.1267 57.0681 26.78ZM58.2021 26.78C58.2021 26.332 58.2955 25.9353 58.4821 25.59C58.6781 25.2353 58.9395 24.96 59.2661 24.764C59.6021 24.568 59.9801 24.47 60.4001 24.47C60.8201 24.47 61.1935 24.568 61.5201 24.764C61.8561 24.96 62.1175 25.2353 62.3041 25.59C62.5001 25.9353 62.5981 26.332 62.5981 26.78C62.5981 27.228 62.5001 27.6247 62.3041 27.97C62.1175 28.3153 61.8561 28.5907 61.5201 28.796C61.1935 28.992 60.8201 29.09 60.4001 29.09C59.9801 29.09 59.6021 28.992 59.2661 28.796C58.9395 28.5907 58.6781 28.3153 58.4821 27.97C58.2955 27.6247 58.2021 27.228 58.2021 26.78ZM66.3907 27.48V23.56H65.2707V27.62C65.2707 28.3853 65.4714 28.9967 65.8727 29.454C66.274 29.9113 66.8107 30.14 67.4827 30.14C67.912 30.14 68.2854 30.0467 68.6027 29.86C68.92 29.664 69.186 29.3747 69.4007 28.992V30H70.5207V23.56H69.4007V27.48C69.4007 27.7973 69.3307 28.0773 69.1907 28.32C69.06 28.5627 68.8687 28.754 68.6167 28.894C68.374 29.0247 68.0894 29.09 67.7627 29.09C67.3147 29.09 66.974 28.95 66.7407 28.67C66.5074 28.39 66.3907 27.9933 66.3907 27.48ZM73.7462 23.56H72.6262V30H73.7462V23.56ZM75.6922 24.792L76.3082 23.868C76.1402 23.6907 75.9535 23.574 75.7482 23.518C75.5522 23.4527 75.3375 23.42 75.1042 23.42C74.8055 23.42 74.5115 23.5367 74.2222 23.77C73.9328 24.0033 73.6948 24.3207 73.5082 24.722C73.3308 25.114 73.2422 25.5667 73.2422 26.08H73.7462C73.7462 25.772 73.7742 25.4967 73.8302 25.254C73.8955 25.0113 74.0075 24.82 74.1662 24.68C74.3248 24.54 74.5442 24.47 74.8242 24.47C75.0108 24.47 75.1648 24.498 75.2862 24.554C75.4075 24.6007 75.5428 24.68 75.6922 24.792ZM84.1143 30.14C84.8049 30.14 85.4023 30.0047 85.9063 29.734C86.4196 29.454 86.8443 29.0433 87.1803 28.502L86.2703 27.928C86.0369 28.32 85.7523 28.614 85.4163 28.81C85.0803 28.9967 84.6929 29.09 84.2543 29.09C83.8156 29.09 83.4423 28.9967 83.1343 28.81C82.8263 28.6233 82.5929 28.3527 82.4343 27.998C82.2756 27.6433 82.1963 27.214 82.1963 26.71C82.2056 26.2153 82.2896 25.8 82.4483 25.464C82.6163 25.1187 82.8496 24.8573 83.1483 24.68C83.4563 24.4933 83.8249 24.4 84.2543 24.4C84.6183 24.4 84.9356 24.4793 85.2063 24.638C85.4769 24.7967 85.6869 25.016 85.8363 25.296C85.9949 25.576 86.0743 25.9073 86.0743 26.29C86.0743 26.3553 86.0603 26.4393 86.0323 26.542C86.0043 26.6353 85.9763 26.7053 85.9483 26.752L86.3963 26.108H81.7763V27.06H87.2783C87.2783 27.0413 87.2783 26.9993 87.2783 26.934C87.2876 26.8593 87.2923 26.7893 87.2923 26.724C87.2923 26.0427 87.1709 25.4547 86.9283 24.96C86.6856 24.4653 86.3356 24.0873 85.8783 23.826C85.4303 23.5553 84.8889 23.42 84.2543 23.42C83.6196 23.42 83.0596 23.56 82.5743 23.84C82.0983 24.12 81.7249 24.512 81.4543 25.016C81.1929 25.52 81.0623 26.108 81.0623 26.78C81.0623 27.4427 81.1883 28.026 81.4403 28.53C81.7016 29.034 82.0609 29.4307 82.5183 29.72C82.9849 30 83.5169 30.14 84.1143 30.14ZM97.6473 25.94C97.6473 25.408 97.5633 24.9553 97.3953 24.582C97.2367 24.1993 97.0033 23.91 96.6953 23.714C96.3873 23.518 96.014 23.42 95.5753 23.42C95.146 23.42 94.7633 23.5227 94.4273 23.728C94.0913 23.924 93.8113 24.2227 93.5873 24.624C93.438 24.2413 93.2 23.9473 92.8733 23.742C92.556 23.5273 92.1733 23.42 91.7253 23.42C91.324 23.42 90.974 23.5087 90.6753 23.686C90.386 23.8633 90.1433 24.134 89.9473 24.498V23.56H88.8273V30H89.9473V26.08C89.9473 25.744 90.008 25.4547 90.1293 25.212C90.2507 24.9693 90.4233 24.7873 90.6473 24.666C90.8713 24.5353 91.1373 24.47 91.4453 24.47C91.8653 24.47 92.1733 24.6007 92.3693 24.862C92.5747 25.1233 92.6773 25.5293 92.6773 26.08V30H93.7973V26.08C93.7973 25.744 93.858 25.4547 93.9793 25.212C94.1007 24.9693 94.2733 24.7873 94.4973 24.666C94.7213 24.5353 94.9873 24.47 95.2953 24.47C95.7153 24.47 96.0233 24.6007 96.2193 24.862C96.4247 25.1233 96.5273 25.5293 96.5273 26.08V30H97.6473V25.94ZM100.255 28.012C100.255 27.7787 100.311 27.578 100.423 27.41C100.535 27.242 100.703 27.1113 100.927 27.018C101.161 26.9247 101.459 26.878 101.823 26.878C102.215 26.878 102.584 26.9293 102.929 27.032C103.275 27.1253 103.611 27.284 103.937 27.508V26.85C103.872 26.766 103.746 26.6587 103.559 26.528C103.373 26.388 103.121 26.2667 102.803 26.164C102.495 26.052 102.108 25.996 101.641 25.996C100.848 25.996 100.227 26.1873 99.7792 26.57C99.3405 26.9433 99.1212 27.4427 99.1212 28.068C99.1212 28.5067 99.2238 28.88 99.4292 29.188C99.6345 29.496 99.9052 29.734 100.241 29.902C100.587 30.0607 100.955 30.14 101.347 30.14C101.702 30.14 102.057 30.0747 102.411 29.944C102.775 29.8133 103.079 29.6127 103.321 29.342C103.573 29.0713 103.699 28.7307 103.699 28.32L103.475 27.48C103.475 27.816 103.391 28.1147 103.223 28.376C103.065 28.628 102.845 28.824 102.565 28.964C102.295 29.104 101.987 29.174 101.641 29.174C101.371 29.174 101.128 29.132 100.913 29.048C100.708 28.9547 100.545 28.8193 100.423 28.642C100.311 28.4647 100.255 28.2547 100.255 28.012ZM100.087 25.044C100.19 24.9693 100.33 24.8807 100.507 24.778C100.685 24.6753 100.899 24.5867 101.151 24.512C101.413 24.4373 101.702 24.4 102.019 24.4C102.215 24.4 102.402 24.4187 102.579 24.456C102.757 24.4933 102.911 24.554 103.041 24.638C103.181 24.722 103.289 24.8387 103.363 24.988C103.438 25.128 103.475 25.31 103.475 25.534V30H104.595V25.38C104.595 24.96 104.488 24.6053 104.273 24.316C104.068 24.0267 103.774 23.8073 103.391 23.658C103.018 23.4993 102.579 23.42 102.075 23.42C101.478 23.42 100.965 23.5087 100.535 23.686C100.115 23.8633 99.7838 24.0407 99.5412 24.218L100.087 25.044ZM106.491 20.9C106.491 21.1053 106.566 21.2873 106.715 21.446C106.874 21.5953 107.056 21.67 107.261 21.67C107.476 21.67 107.658 21.5953 107.807 21.446C107.957 21.2873 108.031 21.1053 108.031 20.9C108.031 20.6853 107.957 20.5033 107.807 20.354C107.658 20.2047 107.476 20.13 107.261 20.13C107.056 20.13 106.874 20.2047 106.715 20.354C106.566 20.5033 106.491 20.6853 106.491 20.9ZM106.701 23.56V30H107.821V23.56H106.701ZM110.128 19.08V30H111.248V19.08H110.128ZM118.056 28.012C118.056 27.7787 118.112 27.578 118.224 27.41C118.336 27.242 118.504 27.1113 118.728 27.018C118.961 26.9247 119.26 26.878 119.624 26.878C120.016 26.878 120.385 26.9293 120.73 27.032C121.075 27.1253 121.411 27.284 121.738 27.508V26.85C121.673 26.766 121.547 26.6587 121.36 26.528C121.173 26.388 120.921 26.2667 120.604 26.164C120.296 26.052 119.909 25.996 119.442 25.996C118.649 25.996 118.028 26.1873 117.58 26.57C117.141 26.9433 116.922 27.4427 116.922 28.068C116.922 28.5067 117.025 28.88 117.23 29.188C117.435 29.496 117.706 29.734 118.042 29.902C118.387 30.0607 118.756 30.14 119.148 30.14C119.503 30.14 119.857 30.0747 120.212 29.944C120.576 29.8133 120.879 29.6127 121.122 29.342C121.374 29.0713 121.5 28.7307 121.5 28.32L121.276 27.48C121.276 27.816 121.192 28.1147 121.024 28.376C120.865 28.628 120.646 28.824 120.366 28.964C120.095 29.104 119.787 29.174 119.442 29.174C119.171 29.174 118.929 29.132 118.714 29.048C118.509 28.9547 118.345 28.8193 118.224 28.642C118.112 28.4647 118.056 28.2547 118.056 28.012ZM117.888 25.044C117.991 24.9693 118.131 24.8807 118.308 24.778C118.485 24.6753 118.7 24.5867 118.952 24.512C119.213 24.4373 119.503 24.4 119.82 24.4C120.016 24.4 120.203 24.4187 120.38 24.456C120.557 24.4933 120.711 24.554 120.842 24.638C120.982 24.722 121.089 24.8387 121.164 24.988C121.239 25.128 121.276 25.31 121.276 25.534V30H122.396V25.38C122.396 24.96 122.289 24.6053 122.074 24.316C121.869 24.0267 121.575 23.8073 121.192 23.658C120.819 23.4993 120.38 23.42 119.876 23.42C119.279 23.42 118.765 23.5087 118.336 23.686C117.916 23.8633 117.585 24.0407 117.342 24.218L117.888 25.044ZM129.122 19.08V30H130.242V19.08H129.122ZM123.732 26.78C123.732 27.4707 123.877 28.068 124.166 28.572C124.456 29.076 124.843 29.4633 125.328 29.734C125.814 30.0047 126.346 30.14 126.924 30.14C127.466 30.14 127.937 30.0047 128.338 29.734C128.74 29.4633 129.052 29.076 129.276 28.572C129.51 28.068 129.626 27.4707 129.626 26.78C129.626 26.08 129.51 25.4827 129.276 24.988C129.052 24.484 128.74 24.0967 128.338 23.826C127.937 23.5553 127.466 23.42 126.924 23.42C126.346 23.42 125.814 23.5553 125.328 23.826C124.843 24.0967 124.456 24.484 124.166 24.988C123.877 25.4827 123.732 26.08 123.732 26.78ZM124.866 26.78C124.866 26.2853 124.964 25.8653 125.16 25.52C125.366 25.1747 125.636 24.9133 125.972 24.736C126.308 24.5587 126.672 24.47 127.064 24.47C127.391 24.47 127.713 24.5587 128.03 24.736C128.348 24.9133 128.609 25.1747 128.814 25.52C129.02 25.8653 129.122 26.2853 129.122 26.78C129.122 27.2747 129.02 27.6947 128.814 28.04C128.609 28.3853 128.348 28.6467 128.03 28.824C127.713 29.0013 127.391 29.09 127.064 29.09C126.672 29.09 126.308 29.0013 125.972 28.824C125.636 28.6467 125.366 28.3853 125.16 28.04C124.964 27.6947 124.866 27.2747 124.866 26.78ZM137.107 19.08V30H138.227V19.08H137.107ZM131.717 26.78C131.717 27.4707 131.861 28.068 132.151 28.572C132.44 29.076 132.827 29.4633 133.313 29.734C133.798 30.0047 134.33 30.14 134.909 30.14C135.45 30.14 135.921 30.0047 136.323 29.734C136.724 29.4633 137.037 29.076 137.261 28.572C137.494 28.068 137.611 27.4707 137.611 26.78C137.611 26.08 137.494 25.4827 137.261 24.988C137.037 24.484 136.724 24.0967 136.323 23.826C135.921 23.5553 135.45 23.42 134.909 23.42C134.33 23.42 133.798 23.5553 133.313 23.826C132.827 24.0967 132.44 24.484 132.151 24.988C131.861 25.4827 131.717 26.08 131.717 26.78ZM132.851 26.78C132.851 26.2853 132.949 25.8653 133.145 25.52C133.35 25.1747 133.621 24.9133 133.957 24.736C134.293 24.5587 134.657 24.47 135.049 24.47C135.375 24.47 135.697 24.5587 136.015 24.736C136.332 24.9133 136.593 25.1747 136.799 25.52C137.004 25.8653 137.107 26.2853 137.107 26.78C137.107 27.2747 137.004 27.6947 136.799 28.04C136.593 28.3853 136.332 28.6467 136.015 28.824C135.697 29.0013 135.375 29.09 135.049 29.09C134.657 29.09 134.293 29.0013 133.957 28.824C133.621 28.6467 133.35 28.3853 133.145 28.04C132.949 27.6947 132.851 27.2747 132.851 26.78ZM141.381 23.56H140.261V30H141.381V23.56ZM143.327 24.792L143.943 23.868C143.775 23.6907 143.588 23.574 143.383 23.518C143.187 23.4527 142.972 23.42 142.739 23.42C142.44 23.42 142.146 23.5367 141.857 23.77C141.568 24.0033 141.33 24.3207 141.143 24.722C140.966 25.114 140.877 25.5667 140.877 26.08H141.381C141.381 25.772 141.409 25.4967 141.465 25.254C141.53 25.0113 141.642 24.82 141.801 24.68C141.96 24.54 142.179 24.47 142.459 24.47C142.646 24.47 142.8 24.498 142.921 24.554C143.042 24.6007 143.178 24.68 143.327 24.792ZM147.347 30.14C148.037 30.14 148.635 30.0047 149.139 29.734C149.652 29.454 150.077 29.0433 150.413 28.502L149.503 27.928C149.269 28.32 148.985 28.614 148.649 28.81C148.313 28.9967 147.925 29.09 147.487 29.09C147.048 29.09 146.675 28.9967 146.367 28.81C146.059 28.6233 145.825 28.3527 145.667 27.998C145.508 27.6433 145.429 27.214 145.429 26.71C145.438 26.2153 145.522 25.8 145.681 25.464C145.849 25.1187 146.082 24.8573 146.381 24.68C146.689 24.4933 147.057 24.4 147.487 24.4C147.851 24.4 148.168 24.4793 148.439 24.638C148.709 24.7967 148.919 25.016 149.069 25.296C149.227 25.576 149.307 25.9073 149.307 26.29C149.307 26.3553 149.293 26.4393 149.265 26.542C149.237 26.6353 149.209 26.7053 149.181 26.752L149.629 26.108H145.009V27.06H150.511C150.511 27.0413 150.511 26.9993 150.511 26.934C150.52 26.8593 150.525 26.7893 150.525 26.724C150.525 26.0427 150.403 25.4547 150.161 24.96C149.918 24.4653 149.568 24.0873 149.111 23.826C148.663 23.5553 148.121 23.42 147.487 23.42C146.852 23.42 146.292 23.56 145.807 23.84C145.331 24.12 144.957 24.512 144.687 25.016C144.425 25.52 144.295 26.108 144.295 26.78C144.295 27.4427 144.421 28.026 144.673 28.53C144.934 29.034 145.293 29.4307 145.751 29.72C146.217 30 146.749 30.14 147.347 30.14ZM152.326 28.026L151.444 28.572C151.565 28.824 151.742 29.0713 151.976 29.314C152.218 29.5567 152.512 29.7573 152.858 29.916C153.203 30.0653 153.59 30.14 154.02 30.14C154.682 30.14 155.214 29.9533 155.616 29.58C156.026 29.2067 156.232 28.74 156.232 28.18C156.232 27.7973 156.138 27.4847 155.952 27.242C155.774 26.9993 155.532 26.794 155.224 26.626C154.916 26.4487 154.575 26.2853 154.202 26.136C153.978 26.0427 153.763 25.9447 153.558 25.842C153.352 25.7393 153.184 25.6227 153.054 25.492C152.923 25.3613 152.858 25.212 152.858 25.044C152.858 24.8293 152.942 24.6707 153.11 24.568C153.278 24.4653 153.478 24.414 153.712 24.414C154.048 24.414 154.346 24.4933 154.608 24.652C154.878 24.8107 155.102 25.0113 155.28 25.254L156.176 24.68C156.045 24.4373 155.863 24.2227 155.63 24.036C155.396 23.8493 155.126 23.7 154.818 23.588C154.519 23.476 154.197 23.42 153.852 23.42C153.506 23.42 153.17 23.4807 152.844 23.602C152.526 23.7233 152.265 23.91 152.06 24.162C151.864 24.414 151.766 24.7313 151.766 25.114C151.766 25.4873 151.859 25.8 152.046 26.052C152.242 26.2947 152.48 26.4953 152.76 26.654C153.049 26.8033 153.334 26.934 153.614 27.046C153.866 27.1393 154.104 27.242 154.328 27.354C154.552 27.4567 154.734 27.5873 154.874 27.746C155.023 27.8953 155.098 28.082 155.098 28.306C155.098 28.558 155.004 28.7587 154.818 28.908C154.64 29.048 154.393 29.118 154.076 29.118C153.814 29.118 153.572 29.0713 153.348 28.978C153.133 28.8753 152.942 28.74 152.774 28.572C152.606 28.404 152.456 28.222 152.326 28.026ZM157.972 28.026L157.09 28.572C157.212 28.824 157.389 29.0713 157.622 29.314C157.865 29.5567 158.159 29.7573 158.504 29.916C158.85 30.0653 159.237 30.14 159.666 30.14C160.329 30.14 160.861 29.9533 161.262 29.58C161.673 29.2067 161.878 28.74 161.878 28.18C161.878 27.7973 161.785 27.4847 161.598 27.242C161.421 26.9993 161.178 26.794 160.87 26.626C160.562 26.4487 160.222 26.2853 159.848 26.136C159.624 26.0427 159.41 25.9447 159.204 25.842C158.999 25.7393 158.831 25.6227 158.7 25.492C158.57 25.3613 158.504 25.212 158.504 25.044C158.504 24.8293 158.588 24.6707 158.756 24.568C158.924 24.4653 159.125 24.414 159.358 24.414C159.694 24.414 159.993 24.4933 160.254 24.652C160.525 24.8107 160.749 25.0113 160.926 25.254L161.822 24.68C161.692 24.4373 161.51 24.2227 161.276 24.036C161.043 23.8493 160.772 23.7 160.464 23.588C160.166 23.476 159.844 23.42 159.498 23.42C159.153 23.42 158.817 23.4807 158.49 23.602C158.173 23.7233 157.912 23.91 157.706 24.162C157.51 24.414 157.412 24.7313 157.412 25.114C157.412 25.4873 157.506 25.8 157.692 26.052C157.888 26.2947 158.126 26.4953 158.406 26.654C158.696 26.8033 158.98 26.934 159.26 27.046C159.512 27.1393 159.75 27.242 159.974 27.354C160.198 27.4567 160.38 27.5873 160.52 27.746C160.67 27.8953 160.744 28.082 160.744 28.306C160.744 28.558 160.651 28.7587 160.464 28.908C160.287 29.048 160.04 29.118 159.722 29.118C159.461 29.118 159.218 29.0713 158.994 28.978C158.78 28.8753 158.588 28.74 158.42 28.572C158.252 28.404 158.103 28.222 157.972 28.026Z" fill="#999999"/>
<rect x="440" width="130" height="50" fill="#023047"/>
<path d="M457.918 26.71L456.49 27.718C456.705 28.1753 457.003 28.6 457.386 28.992C457.769 29.384 458.217 29.6967 458.73 29.93C459.253 30.154 459.813 30.266 460.41 30.266C460.858 30.266 461.283 30.196 461.684 30.056C462.095 29.9253 462.463 29.734 462.79 29.482C463.117 29.2207 463.373 28.9033 463.56 28.53C463.747 28.1567 463.84 27.732 463.84 27.256C463.84 26.836 463.77 26.4673 463.63 26.15C463.499 25.8233 463.313 25.5433 463.07 25.31C462.837 25.0673 462.571 24.862 462.272 24.694C461.983 24.526 461.679 24.386 461.362 24.274C460.867 24.106 460.457 23.9427 460.13 23.784C459.803 23.616 459.561 23.4433 459.402 23.266C459.243 23.0793 459.164 22.8647 459.164 22.622C459.164 22.3793 459.262 22.1693 459.458 21.992C459.654 21.8053 459.948 21.712 460.34 21.712C460.639 21.712 460.905 21.7727 461.138 21.894C461.371 22.006 461.577 22.16 461.754 22.356C461.941 22.5427 462.099 22.7527 462.23 22.986L463.798 22.118C463.63 21.7727 463.392 21.4413 463.084 21.124C462.785 20.7973 462.407 20.5313 461.95 20.326C461.502 20.1113 460.965 20.004 460.34 20.004C459.733 20.004 459.183 20.116 458.688 20.34C458.203 20.5547 457.815 20.8673 457.526 21.278C457.246 21.6793 457.106 22.16 457.106 22.72C457.106 23.1867 457.195 23.588 457.372 23.924C457.549 24.2507 457.773 24.5307 458.044 24.764C458.315 24.988 458.599 25.1747 458.898 25.324C459.206 25.464 459.477 25.576 459.71 25.66C460.149 25.828 460.517 25.9867 460.816 26.136C461.124 26.276 461.353 26.4393 461.502 26.626C461.661 26.8127 461.74 27.06 461.74 27.368C461.74 27.7227 461.614 28.0027 461.362 28.208C461.11 28.4133 460.783 28.516 460.382 28.516C460.037 28.516 459.715 28.4413 459.416 28.292C459.117 28.1427 458.842 27.9327 458.59 27.662C458.347 27.3913 458.123 27.074 457.918 26.71ZM467.18 27.48V23.56H465.304V27.676C465.304 28.4413 465.491 29.0433 465.864 29.482C466.247 29.9207 466.821 30.14 467.586 30.14C468.044 30.14 468.431 30.0467 468.748 29.86C469.066 29.664 469.327 29.384 469.532 29.02V30H471.338V23.56H469.532V27.48C469.532 27.7507 469.476 27.984 469.364 28.18C469.262 28.376 469.112 28.53 468.916 28.642C468.73 28.7447 468.506 28.796 468.244 28.796C467.871 28.796 467.6 28.684 467.432 28.46C467.264 28.2267 467.18 27.9 467.18 27.48ZM474.903 19.08H473.083V30H474.903V19.08ZM480.195 26.78C480.195 26.0613 480.05 25.4547 479.761 24.96C479.471 24.456 479.089 24.0733 478.613 23.812C478.146 23.5507 477.642 23.42 477.101 23.42C476.569 23.42 476.093 23.5553 475.673 23.826C475.262 24.0967 474.935 24.484 474.693 24.988C474.45 25.4827 474.329 26.08 474.329 26.78C474.329 27.4707 474.45 28.068 474.693 28.572C474.935 29.076 475.262 29.4633 475.673 29.734C476.093 30.0047 476.569 30.14 477.101 30.14C477.642 30.14 478.146 30.0093 478.613 29.748C479.089 29.4867 479.471 29.104 479.761 28.6C480.05 28.096 480.195 27.4893 480.195 26.78ZM478.319 26.78C478.319 27.1627 478.239 27.494 478.081 27.774C477.922 28.054 477.707 28.2687 477.437 28.418C477.175 28.5673 476.886 28.642 476.569 28.642C476.298 28.642 476.032 28.572 475.771 28.432C475.519 28.2827 475.309 28.068 475.141 27.788C474.982 27.508 474.903 27.172 474.903 26.78C474.903 26.388 474.982 26.052 475.141 25.772C475.309 25.492 475.519 25.282 475.771 25.142C476.032 24.9927 476.298 24.918 476.569 24.918C476.886 24.918 477.175 24.9927 477.437 25.142C477.707 25.2913 477.922 25.506 478.081 25.786C478.239 26.066 478.319 26.3973 478.319 26.78ZM481.868 27.774L480.986 28.908C481.229 29.1413 481.5 29.3607 481.798 29.566C482.106 29.762 482.447 29.9207 482.82 30.042C483.203 30.1633 483.623 30.224 484.08 30.224C484.818 30.224 485.396 30.0467 485.816 29.692C486.236 29.328 486.446 28.824 486.446 28.18C486.446 27.788 486.358 27.4707 486.18 27.228C486.003 26.9853 485.765 26.7847 485.466 26.626C485.177 26.458 484.86 26.3087 484.514 26.178C484.234 26.0567 483.982 25.954 483.758 25.87C483.544 25.786 483.376 25.6927 483.254 25.59C483.142 25.478 483.086 25.352 483.086 25.212C483.086 25.0533 483.142 24.9367 483.254 24.862C483.376 24.778 483.539 24.736 483.744 24.736C484.052 24.736 484.365 24.8153 484.682 24.974C485.009 25.1327 485.289 25.338 485.522 25.59L486.32 24.47C486.115 24.2647 485.877 24.0873 485.606 23.938C485.336 23.7793 485.042 23.6533 484.724 23.56C484.407 23.4667 484.066 23.42 483.702 23.42C483.273 23.42 482.881 23.49 482.526 23.63C482.181 23.7607 481.906 23.9613 481.7 24.232C481.495 24.4933 481.392 24.8153 481.392 25.198C481.392 25.5993 481.481 25.9307 481.658 26.192C481.845 26.444 482.078 26.6493 482.358 26.808C482.638 26.9573 482.928 27.088 483.226 27.2C483.544 27.3027 483.805 27.4007 484.01 27.494C484.216 27.5873 484.37 27.6947 484.472 27.816C484.584 27.928 484.64 28.068 484.64 28.236C484.64 28.4227 484.575 28.572 484.444 28.684C484.314 28.7867 484.127 28.838 483.884 28.838C483.698 28.838 483.497 28.8007 483.282 28.726C483.077 28.6513 482.858 28.5393 482.624 28.39C482.391 28.2313 482.139 28.026 481.868 27.774ZM489.071 26.78C489.071 26.416 489.155 26.094 489.323 25.814C489.491 25.534 489.715 25.3147 489.995 25.156C490.284 24.988 490.601 24.904 490.947 24.904C491.208 24.904 491.469 24.946 491.731 25.03C491.992 25.114 492.23 25.2353 492.445 25.394C492.669 25.5433 492.837 25.7207 492.949 25.926V24.064C492.725 23.868 492.431 23.714 492.067 23.602C491.712 23.4807 491.297 23.42 490.821 23.42C490.139 23.42 489.523 23.56 488.973 23.84C488.431 24.12 488.002 24.512 487.685 25.016C487.377 25.52 487.223 26.108 487.223 26.78C487.223 27.4427 487.377 28.0307 487.685 28.544C488.002 29.048 488.431 29.44 488.973 29.72C489.523 30 490.139 30.14 490.821 30.14C491.297 30.14 491.712 30.084 492.067 29.972C492.431 29.8507 492.725 29.6873 492.949 29.482V27.62C492.837 27.8253 492.673 28.0073 492.459 28.166C492.253 28.3153 492.02 28.4367 491.759 28.53C491.497 28.614 491.227 28.656 490.947 28.656C490.601 28.656 490.284 28.5767 489.995 28.418C489.715 28.2593 489.491 28.04 489.323 27.76C489.155 27.48 489.071 27.1533 489.071 26.78ZM496.326 23.56H494.548V30H496.326V23.56ZM498.216 25.45L499.042 23.91C498.912 23.742 498.739 23.616 498.524 23.532C498.319 23.448 498.1 23.406 497.866 23.406C497.53 23.406 497.204 23.5273 496.886 23.77C496.569 24.0033 496.312 24.3207 496.116 24.722C495.92 25.114 495.822 25.5667 495.822 26.08L496.326 26.584C496.326 26.276 496.364 26.0147 496.438 25.8C496.522 25.576 496.644 25.4033 496.802 25.282C496.961 25.1607 497.152 25.1 497.376 25.1C497.563 25.1 497.717 25.1327 497.838 25.198C497.969 25.254 498.095 25.338 498.216 25.45ZM499.919 21.068C499.919 21.3573 500.027 21.6 500.241 21.796C500.456 21.992 500.713 22.09 501.011 22.09C501.31 22.09 501.562 21.992 501.767 21.796C501.982 21.6 502.089 21.3573 502.089 21.068C502.089 20.7693 501.982 20.5267 501.767 20.34C501.562 20.144 501.31 20.046 501.011 20.046C500.713 20.046 500.456 20.144 500.241 20.34C500.027 20.5267 499.919 20.7693 499.919 21.068ZM500.115 23.56V30H501.879V23.56H500.115ZM505.582 19.08H503.762V30H505.582V19.08ZM510.874 26.78C510.874 26.0613 510.73 25.4547 510.44 24.96C510.151 24.456 509.768 24.0733 509.292 23.812C508.826 23.5507 508.322 23.42 507.78 23.42C507.248 23.42 506.772 23.5553 506.352 23.826C505.942 24.0967 505.615 24.484 505.372 24.988C505.13 25.4827 505.008 26.08 505.008 26.78C505.008 27.4707 505.13 28.068 505.372 28.572C505.615 29.076 505.942 29.4633 506.352 29.734C506.772 30.0047 507.248 30.14 507.78 30.14C508.322 30.14 508.826 30.0093 509.292 29.748C509.768 29.4867 510.151 29.104 510.44 28.6C510.73 28.096 510.874 27.4893 510.874 26.78ZM508.998 26.78C508.998 27.1627 508.919 27.494 508.76 27.774C508.602 28.054 508.387 28.2687 508.116 28.418C507.855 28.5673 507.566 28.642 507.248 28.642C506.978 28.642 506.712 28.572 506.45 28.432C506.198 28.2827 505.988 28.068 505.82 27.788C505.662 27.508 505.582 27.172 505.582 26.78C505.582 26.388 505.662 26.052 505.82 25.772C505.988 25.492 506.198 25.282 506.45 25.142C506.712 24.9927 506.978 24.918 507.248 24.918C507.566 24.918 507.855 24.9927 508.116 25.142C508.387 25.2913 508.602 25.506 508.76 25.786C508.919 26.066 508.998 26.3973 508.998 26.78ZM515.264 30.14C516.039 30.14 516.701 29.9907 517.252 29.692C517.812 29.384 518.26 28.9267 518.596 28.32L517.014 27.83C516.827 28.138 516.589 28.3713 516.3 28.53C516.02 28.6793 515.679 28.754 515.278 28.754C514.923 28.754 514.62 28.6747 514.368 28.516C514.116 28.3573 513.925 28.1287 513.794 27.83C513.673 27.5313 513.612 27.1673 513.612 26.738C513.621 26.29 513.687 25.9167 513.808 25.618C513.939 25.31 514.121 25.0813 514.354 24.932C514.597 24.7733 514.895 24.694 515.25 24.694C515.539 24.694 515.791 24.7593 516.006 24.89C516.221 25.0207 516.384 25.198 516.496 25.422C516.617 25.646 516.678 25.9167 516.678 26.234C516.678 26.2993 516.659 26.3833 516.622 26.486C516.594 26.5793 516.561 26.654 516.524 26.71L517.014 26.066H512.828V27.186H518.596C518.605 27.13 518.61 27.0553 518.61 26.962C518.619 26.8687 518.624 26.78 518.624 26.696C518.624 26.0053 518.493 25.4173 518.232 24.932C517.971 24.4373 517.588 24.064 517.084 23.812C516.589 23.5507 515.987 23.42 515.278 23.42C514.569 23.42 513.953 23.56 513.43 23.84C512.907 24.1107 512.501 24.498 512.212 25.002C511.932 25.4967 511.792 26.0893 511.792 26.78C511.792 27.4613 511.932 28.054 512.212 28.558C512.501 29.0527 512.907 29.44 513.43 29.72C513.953 30 514.564 30.14 515.264 30.14ZM531.329 20.2V26.276L524.357 19.71V30H526.289V23.924L533.261 30.49V20.2H531.329ZM534.788 26.78C534.788 27.4427 534.942 28.0307 535.25 28.544C535.568 29.048 535.992 29.44 536.524 29.72C537.066 30 537.677 30.14 538.358 30.14C539.04 30.14 539.646 30 540.178 29.72C540.72 29.44 541.144 29.048 541.452 28.544C541.77 28.0307 541.928 27.4427 541.928 26.78C541.928 26.108 541.77 25.52 541.452 25.016C541.144 24.512 540.72 24.12 540.178 23.84C539.646 23.56 539.04 23.42 538.358 23.42C537.677 23.42 537.066 23.56 536.524 23.84C535.992 24.12 535.568 24.512 535.25 25.016C534.942 25.52 534.788 26.108 534.788 26.78ZM536.636 26.78C536.636 26.416 536.711 26.094 536.86 25.814C537.019 25.534 537.229 25.3193 537.49 25.17C537.752 25.0207 538.041 24.946 538.358 24.946C538.676 24.946 538.965 25.0207 539.226 25.17C539.488 25.3193 539.693 25.534 539.842 25.814C540.001 26.094 540.08 26.416 540.08 26.78C540.08 27.144 540.001 27.466 539.842 27.746C539.693 28.0167 539.488 28.2313 539.226 28.39C538.965 28.5393 538.676 28.614 538.358 28.614C538.041 28.614 537.752 28.5393 537.49 28.39C537.229 28.2313 537.019 28.0167 536.86 27.746C536.711 27.466 536.636 27.144 536.636 26.78ZM542.131 23.56L545.296 30.434L547.312 26.332L549.383 30.434L552.534 23.56H550.616L549.188 27.144L547.298 23.07L545.478 27.13L544.064 23.56H542.131Z" fill="white"/>
</svg>
